<svg width="544" height="33" viewBox="0 0 544 33" fill="none" xmlns="http://www.w3.org/2000/svg">
<rect width="544" height="33" fill="#0099FF"/>
<path d="M544 6.45861C538.239 8.14557 532.342 9.80039 526.364 11.407C524.552 11.889 522.713 12.387 520.846 12.869C519.413 13.2546 517.979 13.6241 516.546 13.9937C514.463 14.5399 512.38 15.0701 510.271 15.6003C510.054 15.6485 509.865 15.6967 509.648 15.761C506.808 16.4839 503.941 17.1908 501.047 17.8978C491.228 20.3077 481.193 22.6373 470.942 24.9026C468.913 25.3686 466.885 25.8023 464.829 26.2361C463.395 26.5574 461.989 26.8627 460.555 27.168C457.878 27.7464 455.146 28.3247 452.414 28.8871C445.733 30.2848 438.971 31.6504 432.154 33H0V0C0 0 170.568 28.6621 347.303 26.2522C347.628 26.2522 347.952 26.2361 348.277 26.2361C350.197 26.204 352.145 26.1879 354.092 26.1397C358.366 26.0594 362.613 25.9791 366.886 25.8505C369.753 25.7863 372.621 25.7059 375.488 25.5935C377.002 25.5613 378.517 25.4971 380.005 25.4489C382.629 25.3525 385.252 25.24 387.849 25.1276C389.905 25.0472 391.96 24.9508 394.016 24.8544C395.99 24.7741 397.965 24.6616 399.913 24.5652C403.348 24.3885 406.783 24.1957 410.218 23.9869C412.544 23.8583 414.87 23.7137 417.169 23.5531C421.768 23.2478 426.339 22.9265 430.883 22.557C432.912 22.3963 434.94 22.2356 436.969 22.0589C437.862 21.9946 438.727 21.9143 439.62 21.834C441.378 21.6894 443.136 21.5287 444.894 21.3681C446.301 21.2395 447.707 21.111 449.114 20.9664C451.115 20.7736 453.144 20.5808 455.146 20.372C457.58 20.131 459.987 19.8739 462.395 19.6008C463.99 19.4401 465.559 19.2634 467.155 19.0706C469.157 18.8457 471.131 18.6207 473.133 18.3637C476.514 17.946 479.868 17.5282 483.222 17.0784C486.305 16.6767 489.389 16.2429 492.445 15.8091C492.689 15.777 492.959 15.7288 493.203 15.6967C493.527 15.6485 493.879 15.6003 494.204 15.5521C495.8 15.3111 497.368 15.0862 498.937 14.8291C501.317 14.4757 503.698 14.1061 506.051 13.7045C506.213 13.6884 506.348 13.6723 506.511 13.6402C507.998 13.3992 509.459 13.1582 510.947 12.9012C511.19 12.869 511.407 12.8208 511.65 12.7726C514.355 12.3228 517.06 11.8408 519.737 11.3588L519.765 11.3427C521.82 10.9732 523.849 10.5876 525.878 10.202C529.854 9.43087 533.803 8.64362 537.725 7.82424C539.835 7.37439 541.917 6.92453 544 6.45861Z" fill="white" fill-opacity="0.1"/>
</svg>
