<svg width="595" height="69" viewBox="0 0 595 69" fill="none" xmlns="http://www.w3.org/2000/svg">
<path d="M595 29.2L575.167 22.6C555.333 16 515.667 2.80003 476 7.21378C436.333 11.4625 396.667 33.7375 357 33.6138C317.333 33.7375 277.667 11.4625 238 -1.61374C198.333 -14.9375 158.667 -19.0625 119 -5.98625C79.3333 7.33749 39.6667 37.8625 19.8333 53.4137L-4.76837e-06 68.8L5.61745e-06 -50L19.8333 -50C39.6667 -50 79.3333 -50 119 -50C158.667 -50 198.333 -50 238 -50C277.667 -50 317.333 -50 357 -50C396.667 -50 436.333 -50 476 -49.9999C515.667 -49.9999 555.333 -49.9999 575.167 -49.9999L595 -49.9999L595 29.2Z" fill="#0099FF"/>
</svg>
