<svg width="595" height="93" viewBox="0 0 595 93" fill="none" xmlns="http://www.w3.org/2000/svg">
<path d="M0 39.6L19.8333 46.2C39.6667 52.8 79.3333 66 119 61.5862C158.667 57.3375 198.333 35.0625 238 35.1862C277.667 35.0625 317.333 57.3375 357 70.4137C396.667 83.7375 436.333 87.8625 476 74.7862C515.667 61.4625 555.333 30.9375 575.167 15.3862L595 0V118.8H575.167C555.333 118.8 515.667 118.8 476 118.8C436.333 118.8 396.667 118.8 357 118.8C317.333 118.8 277.667 118.8 238 118.8C198.333 118.8 158.667 118.8 119 118.8C79.3333 118.8 39.6667 118.8 19.8333 118.8H0L0 39.6Z" fill="#0099FF"/>
</svg>
